# xmcd
#
# Track frame offsets:
#	150
#	9137
#	23277
#	33927
#	43252
#	53192
#	67867
#	77422
#	86075
#	102330
#	112827
#	121962
#	135725
#	145972
#	154897
#	169242
#
# Disc length: 2446 seconds
#
# Revision: 1
# Processed by: cddbd v1.5.2PL0 Copyright (c) Steve Scherf et al.
# Submitted via: audiograbber 1.83.01
#
DISCID=c0098c10
DTITLE=Various Artist - Banjos that Destroyed the Earth Vol. 2
DYEAR=2004
DGENRE=Bluegrass
TTITLE0=Dixie Flyer - Lester Flatt
TTITLE1=Marching Through Virginia - Eddie Adcock
TTITLE2=I Wanna Hold Your Hand - Nashville Superpickers
TTITLE3=Foggy Mountain Special - Lester Flatt
TTITLE4=Twelfth Street Rag - Arthur "Guitar Boogie" Smith, Don Reno
TTITLE5=Yacht Crash - Cache Valley Drifters
TTITLE6=Dueling Banjos - Arthur "Guitar Boogie" Smith
TTITLE7=Drive Time - Lester Flatt
TTITLE8=Lyin' Eyes - Nashville Superpickers
TTITLE9=Jesse James - Osborne Brothers
TTITLE10=Pretty Red Wing - The Bluegrass Cardinals
TTITLE11=Thomas Jefferson Breakdown - Masters, Eddie Adcock
TTITLE12=Shuckin' the Corn - Lester Flatt
TTITLE13=Buck Creek - Carl Story
TTITLE14=Classical Gas - Mike Toppins
TTITLE15=Skyline Drive - Don Reno
EXTD=
EXTT0=
EXTT1=
EXTT2=
EXTT3=
EXTT4=
EXTT5=
EXTT6=
EXTT7=
EXTT8=
EXTT9=
EXTT10=
EXTT11=
EXTT12=
EXTT13=
EXTT14=
EXTT15=
PLAYORDER=
